%FSLAX46Y46*%
G04 Gerber Fmt 4.6, Leading zero omitted, Abs format (unit mm)*
G04 Created by KiCad (PCBNEW (2014-08-31 BZR 5107)-product) date tor  6 aug 2015 12:44:02*
%MOMM*%
G01*
G04 APERTURE LIST*
%ADD10C,0.100000*%
%ADD11C,4.826000*%
%ADD12C,1.700000*%
%ADD13R,1.700000X1.700000*%
%ADD14C,0.254000*%
G04 APERTURE END LIST*
D10*
D11*
X179324000Y-103378000D03*
X192532000Y-103378000D03*
X192532000Y-94742000D03*
X179324000Y-94742000D03*
D12*
X172720000Y-101520000D03*
D13*
X172720000Y-96520000D03*
D12*
X185928000Y-101520000D03*
D13*
X185928000Y-96520000D03*
D12*
X199136000Y-101520000D03*
D13*
X199136000Y-96520000D03*
D14*
G36*
X205027669Y-99018869D02*
X204923453Y-100164015D01*
X204598794Y-101267110D01*
X204066059Y-102286138D01*
X203345540Y-103182285D01*
X202464682Y-103921413D01*
X201457031Y-104475373D01*
X200367000Y-104821151D01*
X200367000Y-97407525D01*
X200367000Y-97332475D01*
X200367000Y-95632475D01*
X200352358Y-95558867D01*
X200323638Y-95489529D01*
X200281942Y-95427127D01*
X200228874Y-95374058D01*
X200166471Y-95332362D01*
X200097134Y-95303642D01*
X200023525Y-95289000D01*
X199948475Y-95289000D01*
X198248475Y-95289000D01*
X198174867Y-95303642D01*
X198105529Y-95332362D01*
X198043127Y-95374058D01*
X197990058Y-95427126D01*
X197948362Y-95489529D01*
X197919642Y-95558866D01*
X197905000Y-95632475D01*
X197905000Y-95707525D01*
X197905000Y-97407525D01*
X197919642Y-97481133D01*
X197948362Y-97550471D01*
X197990058Y-97612873D01*
X198043126Y-97665942D01*
X198105529Y-97707638D01*
X198174866Y-97736358D01*
X198248475Y-97751000D01*
X198323525Y-97751000D01*
X200023525Y-97751000D01*
X200097133Y-97736358D01*
X200166471Y-97707638D01*
X200228873Y-97665942D01*
X200281942Y-97612874D01*
X200323638Y-97550471D01*
X200352358Y-97481134D01*
X200367000Y-97407525D01*
X200367000Y-104821151D01*
X200360975Y-104823063D01*
X199197581Y-104953558D01*
X199134391Y-104954000D01*
X194564000Y-104954000D01*
X194544176Y-104955943D01*
X194524257Y-104955735D01*
X194499996Y-104960275D01*
X194475429Y-104962684D01*
X194456357Y-104968442D01*
X194436780Y-104972106D01*
X194413861Y-104981272D01*
X194390232Y-104988407D01*
X194372644Y-104997758D01*
X194354149Y-105005156D01*
X194333446Y-105018600D01*
X194311653Y-105030188D01*
X194296219Y-105042775D01*
X194279511Y-105053626D01*
X194274563Y-105057634D01*
X193875730Y-105385239D01*
X193460263Y-105608010D01*
X193009442Y-105745840D01*
X192540428Y-105793480D01*
X192071101Y-105749115D01*
X191619328Y-105614436D01*
X191202316Y-105394571D01*
X190801205Y-105069758D01*
X190799428Y-105068586D01*
X190789275Y-105060305D01*
X190757625Y-105033748D01*
X190754823Y-105032208D01*
X190752347Y-105030188D01*
X190715860Y-105010787D01*
X190679638Y-104990874D01*
X190676590Y-104989907D01*
X190673769Y-104988407D01*
X190634183Y-104976455D01*
X190594808Y-104963965D01*
X190591634Y-104963609D01*
X190588571Y-104962684D01*
X190547426Y-104958649D01*
X190506367Y-104954044D01*
X190500001Y-104954000D01*
X190500000Y-104954000D01*
X187159000Y-104954000D01*
X187159000Y-97407525D01*
X187159000Y-97332475D01*
X187159000Y-95632475D01*
X187144358Y-95558867D01*
X187115638Y-95489529D01*
X187073942Y-95427127D01*
X187020874Y-95374058D01*
X186958471Y-95332362D01*
X186889134Y-95303642D01*
X186815525Y-95289000D01*
X186740475Y-95289000D01*
X185040475Y-95289000D01*
X184966867Y-95303642D01*
X184897529Y-95332362D01*
X184835127Y-95374058D01*
X184782058Y-95427126D01*
X184740362Y-95489529D01*
X184711642Y-95558866D01*
X184697000Y-95632475D01*
X184697000Y-95707525D01*
X184697000Y-97407525D01*
X184711642Y-97481133D01*
X184740362Y-97550471D01*
X184782058Y-97612873D01*
X184835126Y-97665942D01*
X184897529Y-97707638D01*
X184966866Y-97736358D01*
X185040475Y-97751000D01*
X185115525Y-97751000D01*
X186815525Y-97751000D01*
X186889133Y-97736358D01*
X186958471Y-97707638D01*
X187020873Y-97665942D01*
X187073942Y-97612874D01*
X187115638Y-97550471D01*
X187144358Y-97481134D01*
X187159000Y-97407525D01*
X187159000Y-104954000D01*
X181631623Y-104954000D01*
X181765124Y-104764751D01*
X181987987Y-104264191D01*
X182109381Y-103729875D01*
X182118120Y-103104034D01*
X182011693Y-102566538D01*
X181802892Y-102059950D01*
X181499671Y-101603566D01*
X181113580Y-101214769D01*
X180659324Y-100908370D01*
X180154206Y-100696038D01*
X179617466Y-100585861D01*
X179069547Y-100582036D01*
X178531321Y-100684708D01*
X178023288Y-100889967D01*
X177564798Y-101189994D01*
X177173316Y-101573362D01*
X176863752Y-102025467D01*
X176647899Y-102529091D01*
X176533978Y-103065049D01*
X176526327Y-103612927D01*
X176625240Y-104151857D01*
X176826947Y-104661311D01*
X177015572Y-104954000D01*
X173951000Y-104954000D01*
X173951000Y-97407525D01*
X173951000Y-97332475D01*
X173951000Y-95632475D01*
X173936358Y-95558867D01*
X173907638Y-95489529D01*
X173865942Y-95427127D01*
X173812874Y-95374058D01*
X173750471Y-95332362D01*
X173681134Y-95303642D01*
X173607525Y-95289000D01*
X173532475Y-95289000D01*
X171832475Y-95289000D01*
X171758867Y-95303642D01*
X171689529Y-95332362D01*
X171627127Y-95374058D01*
X171574058Y-95427126D01*
X171532362Y-95489529D01*
X171503642Y-95558866D01*
X171489000Y-95632475D01*
X171489000Y-95707525D01*
X171489000Y-97407525D01*
X171503642Y-97481133D01*
X171532362Y-97550471D01*
X171574058Y-97612873D01*
X171627126Y-97665942D01*
X171689529Y-97707638D01*
X171758866Y-97736358D01*
X171832475Y-97751000D01*
X171907525Y-97751000D01*
X173607525Y-97751000D01*
X173681133Y-97736358D01*
X173750471Y-97707638D01*
X173812873Y-97665942D01*
X173865942Y-97612874D01*
X173907638Y-97550471D01*
X173936358Y-97481134D01*
X173951000Y-97407525D01*
X173951000Y-104954000D01*
X172742305Y-104954000D01*
X171575606Y-104839603D01*
X170474801Y-104507251D01*
X169459521Y-103967416D01*
X168568428Y-103240659D01*
X167835463Y-102354658D01*
X167288554Y-101343168D01*
X166948525Y-100244713D01*
X166828330Y-99101130D01*
X166932546Y-97955985D01*
X167257205Y-96852888D01*
X167789942Y-95833858D01*
X168510459Y-94937714D01*
X169391317Y-94198586D01*
X170398966Y-93644627D01*
X171495024Y-93296936D01*
X172658417Y-93166441D01*
X172721607Y-93166000D01*
X177016763Y-93166000D01*
X176863752Y-93389467D01*
X176647899Y-93893091D01*
X176533978Y-94429049D01*
X176526327Y-94976927D01*
X176625240Y-95515857D01*
X176826947Y-96025311D01*
X177123766Y-96485884D01*
X177504391Y-96880033D01*
X177954325Y-97192745D01*
X178456429Y-97412109D01*
X178991579Y-97529770D01*
X179539390Y-97541245D01*
X180078998Y-97446097D01*
X180589847Y-97247952D01*
X181052481Y-96954355D01*
X181449278Y-96576491D01*
X181765124Y-96128751D01*
X181987987Y-95628191D01*
X182109381Y-95093875D01*
X182118120Y-94468034D01*
X182011693Y-93930538D01*
X181802892Y-93423950D01*
X181631510Y-93166000D01*
X190500000Y-93166000D01*
X190519823Y-93164056D01*
X190539743Y-93164265D01*
X190564003Y-93159724D01*
X190588571Y-93157316D01*
X190607642Y-93151557D01*
X190627220Y-93147894D01*
X190650138Y-93138727D01*
X190673768Y-93131593D01*
X190691355Y-93122241D01*
X190709851Y-93114844D01*
X190730553Y-93101399D01*
X190752347Y-93089812D01*
X190767780Y-93077224D01*
X190784489Y-93066374D01*
X190789437Y-93062366D01*
X191188271Y-92734760D01*
X191603737Y-92511989D01*
X192054557Y-92374159D01*
X192523571Y-92326519D01*
X192992898Y-92370884D01*
X193444672Y-92505563D01*
X193861687Y-92725431D01*
X194262795Y-93050243D01*
X194264576Y-93051417D01*
X194274741Y-93059707D01*
X194306375Y-93086252D01*
X194309173Y-93087790D01*
X194311652Y-93089812D01*
X194348129Y-93109206D01*
X194384362Y-93129126D01*
X194387413Y-93130093D01*
X194390231Y-93131592D01*
X194429751Y-93143523D01*
X194469192Y-93156035D01*
X194472370Y-93156391D01*
X194475429Y-93157315D01*
X194516502Y-93161342D01*
X194557633Y-93165956D01*
X194563999Y-93165999D01*
X194564000Y-93166000D01*
X199113694Y-93166000D01*
X200280391Y-93280395D01*
X201381198Y-93612748D01*
X202396478Y-94152583D01*
X203287571Y-94879340D01*
X204020533Y-95765337D01*
X204567445Y-96776831D01*
X204907474Y-97875286D01*
X205027669Y-99018869D01*
X205027669Y-99018869D01*
G37*
X205027669Y-99018869D02*
X204923453Y-100164015D01*
X204598794Y-101267110D01*
X204066059Y-102286138D01*
X203345540Y-103182285D01*
X202464682Y-103921413D01*
X201457031Y-104475373D01*
X200367000Y-104821151D01*
X200367000Y-97407525D01*
X200367000Y-97332475D01*
X200367000Y-95632475D01*
X200352358Y-95558867D01*
X200323638Y-95489529D01*
X200281942Y-95427127D01*
X200228874Y-95374058D01*
X200166471Y-95332362D01*
X200097134Y-95303642D01*
X200023525Y-95289000D01*
X199948475Y-95289000D01*
X198248475Y-95289000D01*
X198174867Y-95303642D01*
X198105529Y-95332362D01*
X198043127Y-95374058D01*
X197990058Y-95427126D01*
X197948362Y-95489529D01*
X197919642Y-95558866D01*
X197905000Y-95632475D01*
X197905000Y-95707525D01*
X197905000Y-97407525D01*
X197919642Y-97481133D01*
X197948362Y-97550471D01*
X197990058Y-97612873D01*
X198043126Y-97665942D01*
X198105529Y-97707638D01*
X198174866Y-97736358D01*
X198248475Y-97751000D01*
X198323525Y-97751000D01*
X200023525Y-97751000D01*
X200097133Y-97736358D01*
X200166471Y-97707638D01*
X200228873Y-97665942D01*
X200281942Y-97612874D01*
X200323638Y-97550471D01*
X200352358Y-97481134D01*
X200367000Y-97407525D01*
X200367000Y-104821151D01*
X200360975Y-104823063D01*
X199197581Y-104953558D01*
X199134391Y-104954000D01*
X194564000Y-104954000D01*
X194544176Y-104955943D01*
X194524257Y-104955735D01*
X194499996Y-104960275D01*
X194475429Y-104962684D01*
X194456357Y-104968442D01*
X194436780Y-104972106D01*
X194413861Y-104981272D01*
X194390232Y-104988407D01*
X194372644Y-104997758D01*
X194354149Y-105005156D01*
X194333446Y-105018600D01*
X194311653Y-105030188D01*
X194296219Y-105042775D01*
X194279511Y-105053626D01*
X194274563Y-105057634D01*
X193875730Y-105385239D01*
X193460263Y-105608010D01*
X193009442Y-105745840D01*
X192540428Y-105793480D01*
X192071101Y-105749115D01*
X191619328Y-105614436D01*
X191202316Y-105394571D01*
X190801205Y-105069758D01*
X190799428Y-105068586D01*
X190789275Y-105060305D01*
X190757625Y-105033748D01*
X190754823Y-105032208D01*
X190752347Y-105030188D01*
X190715860Y-105010787D01*
X190679638Y-104990874D01*
X190676590Y-104989907D01*
X190673769Y-104988407D01*
X190634183Y-104976455D01*
X190594808Y-104963965D01*
X190591634Y-104963609D01*
X190588571Y-104962684D01*
X190547426Y-104958649D01*
X190506367Y-104954044D01*
X190500001Y-104954000D01*
X190500000Y-104954000D01*
X187159000Y-104954000D01*
X187159000Y-97407525D01*
X187159000Y-97332475D01*
X187159000Y-95632475D01*
X187144358Y-95558867D01*
X187115638Y-95489529D01*
X187073942Y-95427127D01*
X187020874Y-95374058D01*
X186958471Y-95332362D01*
X186889134Y-95303642D01*
X186815525Y-95289000D01*
X186740475Y-95289000D01*
X185040475Y-95289000D01*
X184966867Y-95303642D01*
X184897529Y-95332362D01*
X184835127Y-95374058D01*
X184782058Y-95427126D01*
X184740362Y-95489529D01*
X184711642Y-95558866D01*
X184697000Y-95632475D01*
X184697000Y-95707525D01*
X184697000Y-97407525D01*
X184711642Y-97481133D01*
X184740362Y-97550471D01*
X184782058Y-97612873D01*
X184835126Y-97665942D01*
X184897529Y-97707638D01*
X184966866Y-97736358D01*
X185040475Y-97751000D01*
X185115525Y-97751000D01*
X186815525Y-97751000D01*
X186889133Y-97736358D01*
X186958471Y-97707638D01*
X187020873Y-97665942D01*
X187073942Y-97612874D01*
X187115638Y-97550471D01*
X187144358Y-97481134D01*
X187159000Y-97407525D01*
X187159000Y-104954000D01*
X181631623Y-104954000D01*
X181765124Y-104764751D01*
X181987987Y-104264191D01*
X182109381Y-103729875D01*
X182118120Y-103104034D01*
X182011693Y-102566538D01*
X181802892Y-102059950D01*
X181499671Y-101603566D01*
X181113580Y-101214769D01*
X180659324Y-100908370D01*
X180154206Y-100696038D01*
X179617466Y-100585861D01*
X179069547Y-100582036D01*
X178531321Y-100684708D01*
X178023288Y-100889967D01*
X177564798Y-101189994D01*
X177173316Y-101573362D01*
X176863752Y-102025467D01*
X176647899Y-102529091D01*
X176533978Y-103065049D01*
X176526327Y-103612927D01*
X176625240Y-104151857D01*
X176826947Y-104661311D01*
X177015572Y-104954000D01*
X173951000Y-104954000D01*
X173951000Y-97407525D01*
X173951000Y-97332475D01*
X173951000Y-95632475D01*
X173936358Y-95558867D01*
X173907638Y-95489529D01*
X173865942Y-95427127D01*
X173812874Y-95374058D01*
X173750471Y-95332362D01*
X173681134Y-95303642D01*
X173607525Y-95289000D01*
X173532475Y-95289000D01*
X171832475Y-95289000D01*
X171758867Y-95303642D01*
X171689529Y-95332362D01*
X171627127Y-95374058D01*
X171574058Y-95427126D01*
X171532362Y-95489529D01*
X171503642Y-95558866D01*
X171489000Y-95632475D01*
X171489000Y-95707525D01*
X171489000Y-97407525D01*
X171503642Y-97481133D01*
X171532362Y-97550471D01*
X171574058Y-97612873D01*
X171627126Y-97665942D01*
X171689529Y-97707638D01*
X171758866Y-97736358D01*
X171832475Y-97751000D01*
X171907525Y-97751000D01*
X173607525Y-97751000D01*
X173681133Y-97736358D01*
X173750471Y-97707638D01*
X173812873Y-97665942D01*
X173865942Y-97612874D01*
X173907638Y-97550471D01*
X173936358Y-97481134D01*
X173951000Y-97407525D01*
X173951000Y-104954000D01*
X172742305Y-104954000D01*
X171575606Y-104839603D01*
X170474801Y-104507251D01*
X169459521Y-103967416D01*
X168568428Y-103240659D01*
X167835463Y-102354658D01*
X167288554Y-101343168D01*
X166948525Y-100244713D01*
X166828330Y-99101130D01*
X166932546Y-97955985D01*
X167257205Y-96852888D01*
X167789942Y-95833858D01*
X168510459Y-94937714D01*
X169391317Y-94198586D01*
X170398966Y-93644627D01*
X171495024Y-93296936D01*
X172658417Y-93166441D01*
X172721607Y-93166000D01*
X177016763Y-93166000D01*
X176863752Y-93389467D01*
X176647899Y-93893091D01*
X176533978Y-94429049D01*
X176526327Y-94976927D01*
X176625240Y-95515857D01*
X176826947Y-96025311D01*
X177123766Y-96485884D01*
X177504391Y-96880033D01*
X177954325Y-97192745D01*
X178456429Y-97412109D01*
X178991579Y-97529770D01*
X179539390Y-97541245D01*
X180078998Y-97446097D01*
X180589847Y-97247952D01*
X181052481Y-96954355D01*
X181449278Y-96576491D01*
X181765124Y-96128751D01*
X181987987Y-95628191D01*
X182109381Y-95093875D01*
X182118120Y-94468034D01*
X182011693Y-93930538D01*
X181802892Y-93423950D01*
X181631510Y-93166000D01*
X190500000Y-93166000D01*
X190519823Y-93164056D01*
X190539743Y-93164265D01*
X190564003Y-93159724D01*
X190588571Y-93157316D01*
X190607642Y-93151557D01*
X190627220Y-93147894D01*
X190650138Y-93138727D01*
X190673768Y-93131593D01*
X190691355Y-93122241D01*
X190709851Y-93114844D01*
X190730553Y-93101399D01*
X190752347Y-93089812D01*
X190767780Y-93077224D01*
X190784489Y-93066374D01*
X190789437Y-93062366D01*
X191188271Y-92734760D01*
X191603737Y-92511989D01*
X192054557Y-92374159D01*
X192523571Y-92326519D01*
X192992898Y-92370884D01*
X193444672Y-92505563D01*
X193861687Y-92725431D01*
X194262795Y-93050243D01*
X194264576Y-93051417D01*
X194274741Y-93059707D01*
X194306375Y-93086252D01*
X194309173Y-93087790D01*
X194311652Y-93089812D01*
X194348129Y-93109206D01*
X194384362Y-93129126D01*
X194387413Y-93130093D01*
X194390231Y-93131592D01*
X194429751Y-93143523D01*
X194469192Y-93156035D01*
X194472370Y-93156391D01*
X194475429Y-93157315D01*
X194516502Y-93161342D01*
X194557633Y-93165956D01*
X194563999Y-93165999D01*
X194564000Y-93166000D01*
X199113694Y-93166000D01*
X200280391Y-93280395D01*
X201381198Y-93612748D01*
X202396478Y-94152583D01*
X203287571Y-94879340D01*
X204020533Y-95765337D01*
X204567445Y-96776831D01*
X204907474Y-97875286D01*
X205027669Y-99018869D01*
M02*
