%FSLAX46Y46*%
G04 Gerber Fmt 4.6, Leading zero omitted, Abs format (unit mm)*
G04 Created by KiCad (PCBNEW (2014-08-31 BZR 5107)-product) date tor  6 aug 2015 12:44:02*
%MOMM*%
G01*
G04 APERTURE LIST*
%ADD10C,0.100000*%
%ADD11C,4.826000*%
%ADD12C,1.700000*%
%ADD13R,1.700000X1.700000*%
%ADD14C,0.254000*%
G04 APERTURE END LIST*
D10*
D11*
X179324000Y-103378000D03*
X192532000Y-103378000D03*
X192532000Y-94742000D03*
X179324000Y-94742000D03*
D12*
X172720000Y-101520000D03*
D13*
X172720000Y-96520000D03*
D12*
X185928000Y-101520000D03*
D13*
X185928000Y-96520000D03*
D12*
X199136000Y-101520000D03*
D13*
X199136000Y-96520000D03*
D14*
G36*
X205027669Y-99018869D02*
X204923453Y-100164015D01*
X204598794Y-101267110D01*
X204066059Y-102286138D01*
X203345540Y-103182285D01*
X202464682Y-103921413D01*
X201457031Y-104475373D01*
X200367053Y-104821134D01*
X200367053Y-101399294D01*
X200320162Y-101162480D01*
X200228167Y-100939284D01*
X200094572Y-100738208D01*
X199924465Y-100566909D01*
X199724326Y-100431913D01*
X199501778Y-100338363D01*
X199265297Y-100289820D01*
X199023891Y-100288135D01*
X198786756Y-100333371D01*
X198562923Y-100423805D01*
X198360919Y-100555993D01*
X198188437Y-100724900D01*
X198052047Y-100924092D01*
X197956945Y-101145982D01*
X197906753Y-101382118D01*
X197903382Y-101623506D01*
X197946962Y-101860951D01*
X198035831Y-102085410D01*
X198166606Y-102288332D01*
X198334304Y-102461989D01*
X198532539Y-102599766D01*
X198753760Y-102696415D01*
X198989540Y-102748255D01*
X199230898Y-102753310D01*
X199468642Y-102711390D01*
X199693716Y-102624089D01*
X199897546Y-102494735D01*
X200072370Y-102328253D01*
X200211527Y-102130984D01*
X200309718Y-101910444D01*
X200363202Y-101675032D01*
X200367053Y-101399294D01*
X200367053Y-104821134D01*
X200360975Y-104823063D01*
X199197581Y-104953558D01*
X199134391Y-104954000D01*
X194839623Y-104954000D01*
X194973124Y-104764751D01*
X195195987Y-104264191D01*
X195317381Y-103729875D01*
X195326120Y-103104034D01*
X195219693Y-102566538D01*
X195010892Y-102059950D01*
X194707671Y-101603566D01*
X194321580Y-101214769D01*
X193867324Y-100908370D01*
X193362206Y-100696038D01*
X192825466Y-100585861D01*
X192277547Y-100582036D01*
X191739321Y-100684708D01*
X191231288Y-100889967D01*
X190772798Y-101189994D01*
X190381316Y-101573362D01*
X190071752Y-102025467D01*
X189855899Y-102529091D01*
X189741978Y-103065049D01*
X189734327Y-103612927D01*
X189833240Y-104151857D01*
X190034947Y-104661311D01*
X190223572Y-104954000D01*
X187159053Y-104954000D01*
X187159053Y-101399294D01*
X187112162Y-101162480D01*
X187020167Y-100939284D01*
X186886572Y-100738208D01*
X186716465Y-100566909D01*
X186516326Y-100431913D01*
X186293778Y-100338363D01*
X186057297Y-100289820D01*
X185815891Y-100288135D01*
X185578756Y-100333371D01*
X185354923Y-100423805D01*
X185152919Y-100555993D01*
X184980437Y-100724900D01*
X184844047Y-100924092D01*
X184748945Y-101145982D01*
X184698753Y-101382118D01*
X184695382Y-101623506D01*
X184738962Y-101860951D01*
X184827831Y-102085410D01*
X184958606Y-102288332D01*
X185126304Y-102461989D01*
X185324539Y-102599766D01*
X185545760Y-102696415D01*
X185781540Y-102748255D01*
X186022898Y-102753310D01*
X186260642Y-102711390D01*
X186485716Y-102624089D01*
X186689546Y-102494735D01*
X186864370Y-102328253D01*
X187003527Y-102130984D01*
X187101718Y-101910444D01*
X187155202Y-101675032D01*
X187159053Y-101399294D01*
X187159053Y-104954000D01*
X181356000Y-104954000D01*
X181336176Y-104955943D01*
X181316257Y-104955735D01*
X181291996Y-104960275D01*
X181267429Y-104962684D01*
X181248357Y-104968442D01*
X181228780Y-104972106D01*
X181205861Y-104981272D01*
X181182232Y-104988407D01*
X181164644Y-104997758D01*
X181146149Y-105005156D01*
X181125446Y-105018600D01*
X181103653Y-105030188D01*
X181088219Y-105042775D01*
X181071511Y-105053626D01*
X181066563Y-105057634D01*
X180667730Y-105385239D01*
X180252263Y-105608010D01*
X179801442Y-105745840D01*
X179332428Y-105793480D01*
X178863101Y-105749115D01*
X178411328Y-105614436D01*
X177994316Y-105394571D01*
X177593205Y-105069758D01*
X177591428Y-105068586D01*
X177581275Y-105060305D01*
X177549625Y-105033748D01*
X177546823Y-105032208D01*
X177544347Y-105030188D01*
X177507860Y-105010787D01*
X177471638Y-104990874D01*
X177468590Y-104989907D01*
X177465769Y-104988407D01*
X177426183Y-104976455D01*
X177386808Y-104963965D01*
X177383634Y-104963609D01*
X177380571Y-104962684D01*
X177339426Y-104958649D01*
X177298367Y-104954044D01*
X177292001Y-104954000D01*
X177292000Y-104954000D01*
X173951053Y-104954000D01*
X173951053Y-101399294D01*
X173904162Y-101162480D01*
X173812167Y-100939284D01*
X173678572Y-100738208D01*
X173508465Y-100566909D01*
X173308326Y-100431913D01*
X173085778Y-100338363D01*
X172849297Y-100289820D01*
X172607891Y-100288135D01*
X172370756Y-100333371D01*
X172146923Y-100423805D01*
X171944919Y-100555993D01*
X171772437Y-100724900D01*
X171636047Y-100924092D01*
X171540945Y-101145982D01*
X171490753Y-101382118D01*
X171487382Y-101623506D01*
X171530962Y-101860951D01*
X171619831Y-102085410D01*
X171750606Y-102288332D01*
X171918304Y-102461989D01*
X172116539Y-102599766D01*
X172337760Y-102696415D01*
X172573540Y-102748255D01*
X172814898Y-102753310D01*
X173052642Y-102711390D01*
X173277716Y-102624089D01*
X173481546Y-102494735D01*
X173656370Y-102328253D01*
X173795527Y-102130984D01*
X173893718Y-101910444D01*
X173947202Y-101675032D01*
X173951053Y-101399294D01*
X173951053Y-104954000D01*
X172742305Y-104954000D01*
X171575606Y-104839603D01*
X170474801Y-104507251D01*
X169459521Y-103967416D01*
X168568428Y-103240659D01*
X167835463Y-102354658D01*
X167288554Y-101343168D01*
X166948525Y-100244713D01*
X166828330Y-99101130D01*
X166932546Y-97955985D01*
X167257205Y-96852888D01*
X167789942Y-95833858D01*
X168510459Y-94937714D01*
X169391317Y-94198586D01*
X170398966Y-93644627D01*
X171495024Y-93296936D01*
X172658417Y-93166441D01*
X172721607Y-93166000D01*
X177292000Y-93166000D01*
X177311823Y-93164056D01*
X177331743Y-93164265D01*
X177356003Y-93159724D01*
X177380571Y-93157316D01*
X177399642Y-93151557D01*
X177419220Y-93147894D01*
X177442138Y-93138727D01*
X177465768Y-93131593D01*
X177483355Y-93122241D01*
X177501851Y-93114844D01*
X177522553Y-93101399D01*
X177544347Y-93089812D01*
X177559780Y-93077224D01*
X177576489Y-93066374D01*
X177581437Y-93062366D01*
X177980271Y-92734760D01*
X178395737Y-92511989D01*
X178846557Y-92374159D01*
X179315571Y-92326519D01*
X179784898Y-92370884D01*
X180236672Y-92505563D01*
X180653687Y-92725431D01*
X181054795Y-93050243D01*
X181056576Y-93051417D01*
X181066741Y-93059707D01*
X181098375Y-93086252D01*
X181101173Y-93087790D01*
X181103652Y-93089812D01*
X181140129Y-93109206D01*
X181176362Y-93129126D01*
X181179413Y-93130093D01*
X181182231Y-93131592D01*
X181221751Y-93143523D01*
X181261192Y-93156035D01*
X181264370Y-93156391D01*
X181267429Y-93157315D01*
X181308502Y-93161342D01*
X181349633Y-93165956D01*
X181355999Y-93165999D01*
X181356000Y-93166000D01*
X190224763Y-93166000D01*
X190071752Y-93389467D01*
X189855899Y-93893091D01*
X189741978Y-94429049D01*
X189734327Y-94976927D01*
X189833240Y-95515857D01*
X190034947Y-96025311D01*
X190331766Y-96485884D01*
X190712391Y-96880033D01*
X191162325Y-97192745D01*
X191664429Y-97412109D01*
X192199579Y-97529770D01*
X192747390Y-97541245D01*
X193286998Y-97446097D01*
X193797847Y-97247952D01*
X194260481Y-96954355D01*
X194657278Y-96576491D01*
X194973124Y-96128751D01*
X195195987Y-95628191D01*
X195317381Y-95093875D01*
X195326120Y-94468034D01*
X195219693Y-93930538D01*
X195010892Y-93423950D01*
X194839510Y-93166000D01*
X199113694Y-93166000D01*
X200280391Y-93280395D01*
X201381198Y-93612748D01*
X202396478Y-94152583D01*
X203287571Y-94879340D01*
X204020533Y-95765337D01*
X204567445Y-96776831D01*
X204907474Y-97875286D01*
X205027669Y-99018869D01*
X205027669Y-99018869D01*
G37*
X205027669Y-99018869D02*
X204923453Y-100164015D01*
X204598794Y-101267110D01*
X204066059Y-102286138D01*
X203345540Y-103182285D01*
X202464682Y-103921413D01*
X201457031Y-104475373D01*
X200367053Y-104821134D01*
X200367053Y-101399294D01*
X200320162Y-101162480D01*
X200228167Y-100939284D01*
X200094572Y-100738208D01*
X199924465Y-100566909D01*
X199724326Y-100431913D01*
X199501778Y-100338363D01*
X199265297Y-100289820D01*
X199023891Y-100288135D01*
X198786756Y-100333371D01*
X198562923Y-100423805D01*
X198360919Y-100555993D01*
X198188437Y-100724900D01*
X198052047Y-100924092D01*
X197956945Y-101145982D01*
X197906753Y-101382118D01*
X197903382Y-101623506D01*
X197946962Y-101860951D01*
X198035831Y-102085410D01*
X198166606Y-102288332D01*
X198334304Y-102461989D01*
X198532539Y-102599766D01*
X198753760Y-102696415D01*
X198989540Y-102748255D01*
X199230898Y-102753310D01*
X199468642Y-102711390D01*
X199693716Y-102624089D01*
X199897546Y-102494735D01*
X200072370Y-102328253D01*
X200211527Y-102130984D01*
X200309718Y-101910444D01*
X200363202Y-101675032D01*
X200367053Y-101399294D01*
X200367053Y-104821134D01*
X200360975Y-104823063D01*
X199197581Y-104953558D01*
X199134391Y-104954000D01*
X194839623Y-104954000D01*
X194973124Y-104764751D01*
X195195987Y-104264191D01*
X195317381Y-103729875D01*
X195326120Y-103104034D01*
X195219693Y-102566538D01*
X195010892Y-102059950D01*
X194707671Y-101603566D01*
X194321580Y-101214769D01*
X193867324Y-100908370D01*
X193362206Y-100696038D01*
X192825466Y-100585861D01*
X192277547Y-100582036D01*
X191739321Y-100684708D01*
X191231288Y-100889967D01*
X190772798Y-101189994D01*
X190381316Y-101573362D01*
X190071752Y-102025467D01*
X189855899Y-102529091D01*
X189741978Y-103065049D01*
X189734327Y-103612927D01*
X189833240Y-104151857D01*
X190034947Y-104661311D01*
X190223572Y-104954000D01*
X187159053Y-104954000D01*
X187159053Y-101399294D01*
X187112162Y-101162480D01*
X187020167Y-100939284D01*
X186886572Y-100738208D01*
X186716465Y-100566909D01*
X186516326Y-100431913D01*
X186293778Y-100338363D01*
X186057297Y-100289820D01*
X185815891Y-100288135D01*
X185578756Y-100333371D01*
X185354923Y-100423805D01*
X185152919Y-100555993D01*
X184980437Y-100724900D01*
X184844047Y-100924092D01*
X184748945Y-101145982D01*
X184698753Y-101382118D01*
X184695382Y-101623506D01*
X184738962Y-101860951D01*
X184827831Y-102085410D01*
X184958606Y-102288332D01*
X185126304Y-102461989D01*
X185324539Y-102599766D01*
X185545760Y-102696415D01*
X185781540Y-102748255D01*
X186022898Y-102753310D01*
X186260642Y-102711390D01*
X186485716Y-102624089D01*
X186689546Y-102494735D01*
X186864370Y-102328253D01*
X187003527Y-102130984D01*
X187101718Y-101910444D01*
X187155202Y-101675032D01*
X187159053Y-101399294D01*
X187159053Y-104954000D01*
X181356000Y-104954000D01*
X181336176Y-104955943D01*
X181316257Y-104955735D01*
X181291996Y-104960275D01*
X181267429Y-104962684D01*
X181248357Y-104968442D01*
X181228780Y-104972106D01*
X181205861Y-104981272D01*
X181182232Y-104988407D01*
X181164644Y-104997758D01*
X181146149Y-105005156D01*
X181125446Y-105018600D01*
X181103653Y-105030188D01*
X181088219Y-105042775D01*
X181071511Y-105053626D01*
X181066563Y-105057634D01*
X180667730Y-105385239D01*
X180252263Y-105608010D01*
X179801442Y-105745840D01*
X179332428Y-105793480D01*
X178863101Y-105749115D01*
X178411328Y-105614436D01*
X177994316Y-105394571D01*
X177593205Y-105069758D01*
X177591428Y-105068586D01*
X177581275Y-105060305D01*
X177549625Y-105033748D01*
X177546823Y-105032208D01*
X177544347Y-105030188D01*
X177507860Y-105010787D01*
X177471638Y-104990874D01*
X177468590Y-104989907D01*
X177465769Y-104988407D01*
X177426183Y-104976455D01*
X177386808Y-104963965D01*
X177383634Y-104963609D01*
X177380571Y-104962684D01*
X177339426Y-104958649D01*
X177298367Y-104954044D01*
X177292001Y-104954000D01*
X177292000Y-104954000D01*
X173951053Y-104954000D01*
X173951053Y-101399294D01*
X173904162Y-101162480D01*
X173812167Y-100939284D01*
X173678572Y-100738208D01*
X173508465Y-100566909D01*
X173308326Y-100431913D01*
X173085778Y-100338363D01*
X172849297Y-100289820D01*
X172607891Y-100288135D01*
X172370756Y-100333371D01*
X172146923Y-100423805D01*
X171944919Y-100555993D01*
X171772437Y-100724900D01*
X171636047Y-100924092D01*
X171540945Y-101145982D01*
X171490753Y-101382118D01*
X171487382Y-101623506D01*
X171530962Y-101860951D01*
X171619831Y-102085410D01*
X171750606Y-102288332D01*
X171918304Y-102461989D01*
X172116539Y-102599766D01*
X172337760Y-102696415D01*
X172573540Y-102748255D01*
X172814898Y-102753310D01*
X173052642Y-102711390D01*
X173277716Y-102624089D01*
X173481546Y-102494735D01*
X173656370Y-102328253D01*
X173795527Y-102130984D01*
X173893718Y-101910444D01*
X173947202Y-101675032D01*
X173951053Y-101399294D01*
X173951053Y-104954000D01*
X172742305Y-104954000D01*
X171575606Y-104839603D01*
X170474801Y-104507251D01*
X169459521Y-103967416D01*
X168568428Y-103240659D01*
X167835463Y-102354658D01*
X167288554Y-101343168D01*
X166948525Y-100244713D01*
X166828330Y-99101130D01*
X166932546Y-97955985D01*
X167257205Y-96852888D01*
X167789942Y-95833858D01*
X168510459Y-94937714D01*
X169391317Y-94198586D01*
X170398966Y-93644627D01*
X171495024Y-93296936D01*
X172658417Y-93166441D01*
X172721607Y-93166000D01*
X177292000Y-93166000D01*
X177311823Y-93164056D01*
X177331743Y-93164265D01*
X177356003Y-93159724D01*
X177380571Y-93157316D01*
X177399642Y-93151557D01*
X177419220Y-93147894D01*
X177442138Y-93138727D01*
X177465768Y-93131593D01*
X177483355Y-93122241D01*
X177501851Y-93114844D01*
X177522553Y-93101399D01*
X177544347Y-93089812D01*
X177559780Y-93077224D01*
X177576489Y-93066374D01*
X177581437Y-93062366D01*
X177980271Y-92734760D01*
X178395737Y-92511989D01*
X178846557Y-92374159D01*
X179315571Y-92326519D01*
X179784898Y-92370884D01*
X180236672Y-92505563D01*
X180653687Y-92725431D01*
X181054795Y-93050243D01*
X181056576Y-93051417D01*
X181066741Y-93059707D01*
X181098375Y-93086252D01*
X181101173Y-93087790D01*
X181103652Y-93089812D01*
X181140129Y-93109206D01*
X181176362Y-93129126D01*
X181179413Y-93130093D01*
X181182231Y-93131592D01*
X181221751Y-93143523D01*
X181261192Y-93156035D01*
X181264370Y-93156391D01*
X181267429Y-93157315D01*
X181308502Y-93161342D01*
X181349633Y-93165956D01*
X181355999Y-93165999D01*
X181356000Y-93166000D01*
X190224763Y-93166000D01*
X190071752Y-93389467D01*
X189855899Y-93893091D01*
X189741978Y-94429049D01*
X189734327Y-94976927D01*
X189833240Y-95515857D01*
X190034947Y-96025311D01*
X190331766Y-96485884D01*
X190712391Y-96880033D01*
X191162325Y-97192745D01*
X191664429Y-97412109D01*
X192199579Y-97529770D01*
X192747390Y-97541245D01*
X193286998Y-97446097D01*
X193797847Y-97247952D01*
X194260481Y-96954355D01*
X194657278Y-96576491D01*
X194973124Y-96128751D01*
X195195987Y-95628191D01*
X195317381Y-95093875D01*
X195326120Y-94468034D01*
X195219693Y-93930538D01*
X195010892Y-93423950D01*
X194839510Y-93166000D01*
X199113694Y-93166000D01*
X200280391Y-93280395D01*
X201381198Y-93612748D01*
X202396478Y-94152583D01*
X203287571Y-94879340D01*
X204020533Y-95765337D01*
X204567445Y-96776831D01*
X204907474Y-97875286D01*
X205027669Y-99018869D01*
M02*
