G04 #@! TF.FileFunction,Copper,L2,Bot,Signal*
%FSLAX46Y46*%
G04 Gerber Fmt 4.6, Leading zero omitted, Abs format (unit mm)*
G04 Created by KiCad (PCBNEW (2015-08-23 BZR 6117)-product) date tor 27 aug 2015 09:21:38*
%MOMM*%
G01*
G04 APERTURE LIST*
%ADD10C,0.100000*%
%ADD11C,5.080000*%
%ADD12C,1.700000*%
%ADD13R,1.700000X1.700000*%
%ADD14C,0.254000*%
G04 APERTURE END LIST*
D10*
D11*
X179324000Y-103378000D03*
X192532000Y-103378000D03*
X192532000Y-94742000D03*
X179324000Y-94742000D03*
D12*
X172720000Y-101520000D03*
D13*
X172720000Y-96520000D03*
D12*
X185928000Y-101520000D03*
D13*
X185928000Y-96520000D03*
D12*
X199136000Y-101520000D03*
D13*
X199136000Y-96520000D03*
D14*
G36*
X192992898Y-92370884D02*
X193444672Y-92505564D01*
X193861687Y-92725431D01*
X194262795Y-93050243D01*
X194264577Y-93051418D01*
X194274741Y-93059708D01*
X194306375Y-93086252D01*
X194309173Y-93087790D01*
X194311652Y-93089812D01*
X194348129Y-93109207D01*
X194384362Y-93129126D01*
X194387414Y-93130094D01*
X194390231Y-93131592D01*
X194429751Y-93143524D01*
X194469192Y-93156035D01*
X194472370Y-93156392D01*
X194475429Y-93157315D01*
X194516502Y-93161342D01*
X194557633Y-93165956D01*
X194564000Y-93166000D01*
X199113695Y-93166000D01*
X200280392Y-93280396D01*
X201381198Y-93612749D01*
X202396479Y-94152583D01*
X203287572Y-94879341D01*
X204020533Y-95765337D01*
X204567446Y-96776832D01*
X204907475Y-97875287D01*
X205027670Y-99018869D01*
X204923453Y-100164016D01*
X204598794Y-101267111D01*
X204066059Y-102286138D01*
X203345540Y-103182286D01*
X202464682Y-103921413D01*
X201457031Y-104475373D01*
X200360975Y-104823063D01*
X199197582Y-104953559D01*
X199134392Y-104954000D01*
X194564000Y-104954000D01*
X194544176Y-104955944D01*
X194524257Y-104955735D01*
X194499996Y-104960275D01*
X194475429Y-104962684D01*
X194456357Y-104968442D01*
X194436780Y-104972106D01*
X194413862Y-104981273D01*
X194390232Y-104988407D01*
X194372645Y-104997758D01*
X194354149Y-105005156D01*
X194333446Y-105018600D01*
X194311653Y-105030188D01*
X194296219Y-105042776D01*
X194279511Y-105053626D01*
X194274563Y-105057634D01*
X193875730Y-105385239D01*
X193460263Y-105608011D01*
X193009443Y-105745840D01*
X192540429Y-105793480D01*
X192071101Y-105749116D01*
X191619329Y-105614437D01*
X191202317Y-105394571D01*
X190801205Y-105069758D01*
X190799428Y-105068586D01*
X190789275Y-105060306D01*
X190757625Y-105033748D01*
X190754824Y-105032208D01*
X190752347Y-105030188D01*
X190715861Y-105010788D01*
X190679638Y-104990874D01*
X190676591Y-104989907D01*
X190673769Y-104988407D01*
X190634183Y-104976455D01*
X190594808Y-104963965D01*
X190591635Y-104963609D01*
X190588571Y-104962684D01*
X190547427Y-104958650D01*
X190506367Y-104954044D01*
X190500001Y-104954000D01*
X181787048Y-104954000D01*
X181876083Y-104827785D01*
X182109077Y-104304472D01*
X182235989Y-103745870D01*
X182245125Y-103091581D01*
X182133860Y-102529653D01*
X181915569Y-102000039D01*
X181598565Y-101522910D01*
X181194924Y-101116441D01*
X180720020Y-100796114D01*
X180191942Y-100574131D01*
X179630805Y-100458946D01*
X179057981Y-100454947D01*
X178495290Y-100562286D01*
X177964165Y-100776875D01*
X177484834Y-101090539D01*
X177075558Y-101491333D01*
X176751923Y-101963989D01*
X176526259Y-102490504D01*
X176407159Y-103050824D01*
X176399161Y-103623606D01*
X176502569Y-104187032D01*
X176713445Y-104719643D01*
X176864477Y-104954000D01*
X172742305Y-104954000D01*
X171575607Y-104839604D01*
X170474802Y-104507251D01*
X169459521Y-103967417D01*
X168568428Y-103240659D01*
X167835464Y-102354658D01*
X167288554Y-101343168D01*
X166948525Y-100244713D01*
X166828330Y-99101131D01*
X166932547Y-97955985D01*
X167257206Y-96852889D01*
X167789943Y-95833858D01*
X167921687Y-95670000D01*
X171487157Y-95670000D01*
X171487157Y-97370000D01*
X171491995Y-97430673D01*
X171523864Y-97533580D01*
X171583140Y-97623535D01*
X171665130Y-97693415D01*
X171763342Y-97737686D01*
X171870000Y-97752843D01*
X173570000Y-97752843D01*
X173630673Y-97748005D01*
X173733580Y-97716136D01*
X173823535Y-97656860D01*
X173893415Y-97574870D01*
X173937686Y-97476658D01*
X173952843Y-97370000D01*
X173952843Y-95670000D01*
X173948005Y-95609327D01*
X173916136Y-95506420D01*
X173856860Y-95416465D01*
X173774870Y-95346585D01*
X173676658Y-95302314D01*
X173570000Y-95287157D01*
X171870000Y-95287157D01*
X171809327Y-95291995D01*
X171706420Y-95323864D01*
X171616465Y-95383140D01*
X171546585Y-95465130D01*
X171502314Y-95563342D01*
X171487157Y-95670000D01*
X167921687Y-95670000D01*
X168510460Y-94937714D01*
X169391318Y-94198587D01*
X170398966Y-93644627D01*
X171495025Y-93296937D01*
X172658417Y-93166441D01*
X172721607Y-93166000D01*
X176862839Y-93166000D01*
X176751923Y-93327989D01*
X176526259Y-93854504D01*
X176407159Y-94414824D01*
X176399161Y-94987606D01*
X176502569Y-95551032D01*
X176713445Y-96083643D01*
X177023755Y-96565151D01*
X177421682Y-96977216D01*
X177892067Y-97304142D01*
X178416994Y-97533477D01*
X178976469Y-97656486D01*
X179549181Y-97668482D01*
X180113315Y-97569010D01*
X180647386Y-97361858D01*
X181131048Y-97054916D01*
X181545881Y-96659876D01*
X181876083Y-96191785D01*
X182108396Y-95670000D01*
X184695157Y-95670000D01*
X184695157Y-97370000D01*
X184699995Y-97430673D01*
X184731864Y-97533580D01*
X184791140Y-97623535D01*
X184873130Y-97693415D01*
X184971342Y-97737686D01*
X185078000Y-97752843D01*
X186778000Y-97752843D01*
X186838673Y-97748005D01*
X186941580Y-97716136D01*
X187031535Y-97656860D01*
X187101415Y-97574870D01*
X187145686Y-97476658D01*
X187160843Y-97370000D01*
X187160843Y-95670000D01*
X197903157Y-95670000D01*
X197903157Y-97370000D01*
X197907995Y-97430673D01*
X197939864Y-97533580D01*
X197999140Y-97623535D01*
X198081130Y-97693415D01*
X198179342Y-97737686D01*
X198286000Y-97752843D01*
X199986000Y-97752843D01*
X200046673Y-97748005D01*
X200149580Y-97716136D01*
X200239535Y-97656860D01*
X200309415Y-97574870D01*
X200353686Y-97476658D01*
X200368843Y-97370000D01*
X200368843Y-95670000D01*
X200364005Y-95609327D01*
X200332136Y-95506420D01*
X200272860Y-95416465D01*
X200190870Y-95346585D01*
X200092658Y-95302314D01*
X199986000Y-95287157D01*
X198286000Y-95287157D01*
X198225327Y-95291995D01*
X198122420Y-95323864D01*
X198032465Y-95383140D01*
X197962585Y-95465130D01*
X197918314Y-95563342D01*
X197903157Y-95670000D01*
X187160843Y-95670000D01*
X187156005Y-95609327D01*
X187124136Y-95506420D01*
X187064860Y-95416465D01*
X186982870Y-95346585D01*
X186884658Y-95302314D01*
X186778000Y-95287157D01*
X185078000Y-95287157D01*
X185017327Y-95291995D01*
X184914420Y-95323864D01*
X184824465Y-95383140D01*
X184754585Y-95465130D01*
X184710314Y-95563342D01*
X184695157Y-95670000D01*
X182108396Y-95670000D01*
X182109077Y-95668472D01*
X182235989Y-95109870D01*
X182245125Y-94455581D01*
X182133860Y-93893653D01*
X181915569Y-93364039D01*
X181783992Y-93166000D01*
X190500000Y-93166000D01*
X190519824Y-93164056D01*
X190539743Y-93164265D01*
X190564004Y-93159725D01*
X190588571Y-93157316D01*
X190607643Y-93151558D01*
X190627220Y-93147894D01*
X190650138Y-93138727D01*
X190673768Y-93131593D01*
X190691355Y-93122242D01*
X190709851Y-93114844D01*
X190730554Y-93101400D01*
X190752347Y-93089812D01*
X190767781Y-93077224D01*
X190784489Y-93066374D01*
X190789437Y-93062366D01*
X191188271Y-92734761D01*
X191603737Y-92511989D01*
X192054557Y-92374160D01*
X192523571Y-92326520D01*
X192992898Y-92370884D01*
X192992898Y-92370884D01*
G37*
X192992898Y-92370884D02*
X193444672Y-92505564D01*
X193861687Y-92725431D01*
X194262795Y-93050243D01*
X194264577Y-93051418D01*
X194274741Y-93059708D01*
X194306375Y-93086252D01*
X194309173Y-93087790D01*
X194311652Y-93089812D01*
X194348129Y-93109207D01*
X194384362Y-93129126D01*
X194387414Y-93130094D01*
X194390231Y-93131592D01*
X194429751Y-93143524D01*
X194469192Y-93156035D01*
X194472370Y-93156392D01*
X194475429Y-93157315D01*
X194516502Y-93161342D01*
X194557633Y-93165956D01*
X194564000Y-93166000D01*
X199113695Y-93166000D01*
X200280392Y-93280396D01*
X201381198Y-93612749D01*
X202396479Y-94152583D01*
X203287572Y-94879341D01*
X204020533Y-95765337D01*
X204567446Y-96776832D01*
X204907475Y-97875287D01*
X205027670Y-99018869D01*
X204923453Y-100164016D01*
X204598794Y-101267111D01*
X204066059Y-102286138D01*
X203345540Y-103182286D01*
X202464682Y-103921413D01*
X201457031Y-104475373D01*
X200360975Y-104823063D01*
X199197582Y-104953559D01*
X199134392Y-104954000D01*
X194564000Y-104954000D01*
X194544176Y-104955944D01*
X194524257Y-104955735D01*
X194499996Y-104960275D01*
X194475429Y-104962684D01*
X194456357Y-104968442D01*
X194436780Y-104972106D01*
X194413862Y-104981273D01*
X194390232Y-104988407D01*
X194372645Y-104997758D01*
X194354149Y-105005156D01*
X194333446Y-105018600D01*
X194311653Y-105030188D01*
X194296219Y-105042776D01*
X194279511Y-105053626D01*
X194274563Y-105057634D01*
X193875730Y-105385239D01*
X193460263Y-105608011D01*
X193009443Y-105745840D01*
X192540429Y-105793480D01*
X192071101Y-105749116D01*
X191619329Y-105614437D01*
X191202317Y-105394571D01*
X190801205Y-105069758D01*
X190799428Y-105068586D01*
X190789275Y-105060306D01*
X190757625Y-105033748D01*
X190754824Y-105032208D01*
X190752347Y-105030188D01*
X190715861Y-105010788D01*
X190679638Y-104990874D01*
X190676591Y-104989907D01*
X190673769Y-104988407D01*
X190634183Y-104976455D01*
X190594808Y-104963965D01*
X190591635Y-104963609D01*
X190588571Y-104962684D01*
X190547427Y-104958650D01*
X190506367Y-104954044D01*
X190500001Y-104954000D01*
X181787048Y-104954000D01*
X181876083Y-104827785D01*
X182109077Y-104304472D01*
X182235989Y-103745870D01*
X182245125Y-103091581D01*
X182133860Y-102529653D01*
X181915569Y-102000039D01*
X181598565Y-101522910D01*
X181194924Y-101116441D01*
X180720020Y-100796114D01*
X180191942Y-100574131D01*
X179630805Y-100458946D01*
X179057981Y-100454947D01*
X178495290Y-100562286D01*
X177964165Y-100776875D01*
X177484834Y-101090539D01*
X177075558Y-101491333D01*
X176751923Y-101963989D01*
X176526259Y-102490504D01*
X176407159Y-103050824D01*
X176399161Y-103623606D01*
X176502569Y-104187032D01*
X176713445Y-104719643D01*
X176864477Y-104954000D01*
X172742305Y-104954000D01*
X171575607Y-104839604D01*
X170474802Y-104507251D01*
X169459521Y-103967417D01*
X168568428Y-103240659D01*
X167835464Y-102354658D01*
X167288554Y-101343168D01*
X166948525Y-100244713D01*
X166828330Y-99101131D01*
X166932547Y-97955985D01*
X167257206Y-96852889D01*
X167789943Y-95833858D01*
X167921687Y-95670000D01*
X171487157Y-95670000D01*
X171487157Y-97370000D01*
X171491995Y-97430673D01*
X171523864Y-97533580D01*
X171583140Y-97623535D01*
X171665130Y-97693415D01*
X171763342Y-97737686D01*
X171870000Y-97752843D01*
X173570000Y-97752843D01*
X173630673Y-97748005D01*
X173733580Y-97716136D01*
X173823535Y-97656860D01*
X173893415Y-97574870D01*
X173937686Y-97476658D01*
X173952843Y-97370000D01*
X173952843Y-95670000D01*
X173948005Y-95609327D01*
X173916136Y-95506420D01*
X173856860Y-95416465D01*
X173774870Y-95346585D01*
X173676658Y-95302314D01*
X173570000Y-95287157D01*
X171870000Y-95287157D01*
X171809327Y-95291995D01*
X171706420Y-95323864D01*
X171616465Y-95383140D01*
X171546585Y-95465130D01*
X171502314Y-95563342D01*
X171487157Y-95670000D01*
X167921687Y-95670000D01*
X168510460Y-94937714D01*
X169391318Y-94198587D01*
X170398966Y-93644627D01*
X171495025Y-93296937D01*
X172658417Y-93166441D01*
X172721607Y-93166000D01*
X176862839Y-93166000D01*
X176751923Y-93327989D01*
X176526259Y-93854504D01*
X176407159Y-94414824D01*
X176399161Y-94987606D01*
X176502569Y-95551032D01*
X176713445Y-96083643D01*
X177023755Y-96565151D01*
X177421682Y-96977216D01*
X177892067Y-97304142D01*
X178416994Y-97533477D01*
X178976469Y-97656486D01*
X179549181Y-97668482D01*
X180113315Y-97569010D01*
X180647386Y-97361858D01*
X181131048Y-97054916D01*
X181545881Y-96659876D01*
X181876083Y-96191785D01*
X182108396Y-95670000D01*
X184695157Y-95670000D01*
X184695157Y-97370000D01*
X184699995Y-97430673D01*
X184731864Y-97533580D01*
X184791140Y-97623535D01*
X184873130Y-97693415D01*
X184971342Y-97737686D01*
X185078000Y-97752843D01*
X186778000Y-97752843D01*
X186838673Y-97748005D01*
X186941580Y-97716136D01*
X187031535Y-97656860D01*
X187101415Y-97574870D01*
X187145686Y-97476658D01*
X187160843Y-97370000D01*
X187160843Y-95670000D01*
X197903157Y-95670000D01*
X197903157Y-97370000D01*
X197907995Y-97430673D01*
X197939864Y-97533580D01*
X197999140Y-97623535D01*
X198081130Y-97693415D01*
X198179342Y-97737686D01*
X198286000Y-97752843D01*
X199986000Y-97752843D01*
X200046673Y-97748005D01*
X200149580Y-97716136D01*
X200239535Y-97656860D01*
X200309415Y-97574870D01*
X200353686Y-97476658D01*
X200368843Y-97370000D01*
X200368843Y-95670000D01*
X200364005Y-95609327D01*
X200332136Y-95506420D01*
X200272860Y-95416465D01*
X200190870Y-95346585D01*
X200092658Y-95302314D01*
X199986000Y-95287157D01*
X198286000Y-95287157D01*
X198225327Y-95291995D01*
X198122420Y-95323864D01*
X198032465Y-95383140D01*
X197962585Y-95465130D01*
X197918314Y-95563342D01*
X197903157Y-95670000D01*
X187160843Y-95670000D01*
X187156005Y-95609327D01*
X187124136Y-95506420D01*
X187064860Y-95416465D01*
X186982870Y-95346585D01*
X186884658Y-95302314D01*
X186778000Y-95287157D01*
X185078000Y-95287157D01*
X185017327Y-95291995D01*
X184914420Y-95323864D01*
X184824465Y-95383140D01*
X184754585Y-95465130D01*
X184710314Y-95563342D01*
X184695157Y-95670000D01*
X182108396Y-95670000D01*
X182109077Y-95668472D01*
X182235989Y-95109870D01*
X182245125Y-94455581D01*
X182133860Y-93893653D01*
X181915569Y-93364039D01*
X181783992Y-93166000D01*
X190500000Y-93166000D01*
X190519824Y-93164056D01*
X190539743Y-93164265D01*
X190564004Y-93159725D01*
X190588571Y-93157316D01*
X190607643Y-93151558D01*
X190627220Y-93147894D01*
X190650138Y-93138727D01*
X190673768Y-93131593D01*
X190691355Y-93122242D01*
X190709851Y-93114844D01*
X190730554Y-93101400D01*
X190752347Y-93089812D01*
X190767781Y-93077224D01*
X190784489Y-93066374D01*
X190789437Y-93062366D01*
X191188271Y-92734761D01*
X191603737Y-92511989D01*
X192054557Y-92374160D01*
X192523571Y-92326520D01*
X192992898Y-92370884D01*
M02*
