G04 #@! TF.FileFunction,Copper,L1,Top,Signal*
%FSLAX46Y46*%
G04 Gerber Fmt 4.6, Leading zero omitted, Abs format (unit mm)*
G04 Created by KiCad (PCBNEW (2015-08-23 BZR 6117)-product) date tor 27 aug 2015 09:21:38*
%MOMM*%
G01*
G04 APERTURE LIST*
%ADD10C,0.100000*%
%ADD11C,5.080000*%
%ADD12C,1.700000*%
%ADD13R,1.700000X1.700000*%
%ADD14C,0.254000*%
G04 APERTURE END LIST*
D10*
D11*
X179324000Y-103378000D03*
X192532000Y-103378000D03*
X192532000Y-94742000D03*
X179324000Y-94742000D03*
D12*
X172720000Y-101520000D03*
D13*
X172720000Y-96520000D03*
D12*
X185928000Y-101520000D03*
D13*
X185928000Y-96520000D03*
D12*
X199136000Y-101520000D03*
D13*
X199136000Y-96520000D03*
D14*
G36*
X179784898Y-92370884D02*
X180236672Y-92505564D01*
X180653687Y-92725431D01*
X181054795Y-93050243D01*
X181056577Y-93051418D01*
X181066741Y-93059708D01*
X181098375Y-93086252D01*
X181101173Y-93087790D01*
X181103652Y-93089812D01*
X181140129Y-93109207D01*
X181176362Y-93129126D01*
X181179414Y-93130094D01*
X181182231Y-93131592D01*
X181221751Y-93143524D01*
X181261192Y-93156035D01*
X181264370Y-93156392D01*
X181267429Y-93157315D01*
X181308502Y-93161342D01*
X181349633Y-93165956D01*
X181356000Y-93166000D01*
X190070839Y-93166000D01*
X189959923Y-93327989D01*
X189734259Y-93854504D01*
X189615159Y-94414824D01*
X189607161Y-94987606D01*
X189710569Y-95551032D01*
X189921445Y-96083643D01*
X190231755Y-96565151D01*
X190629682Y-96977216D01*
X191100067Y-97304142D01*
X191624994Y-97533477D01*
X192184469Y-97656486D01*
X192757181Y-97668482D01*
X193321315Y-97569010D01*
X193855386Y-97361858D01*
X194339048Y-97054916D01*
X194753881Y-96659876D01*
X195084083Y-96191785D01*
X195317077Y-95668472D01*
X195443989Y-95109870D01*
X195453125Y-94455581D01*
X195341860Y-93893653D01*
X195123569Y-93364039D01*
X194991992Y-93166000D01*
X199113695Y-93166000D01*
X200280392Y-93280396D01*
X201381198Y-93612749D01*
X202396479Y-94152583D01*
X203287572Y-94879341D01*
X204020533Y-95765337D01*
X204567446Y-96776832D01*
X204907475Y-97875287D01*
X205027670Y-99018869D01*
X204923453Y-100164016D01*
X204598794Y-101267111D01*
X204066059Y-102286138D01*
X203345540Y-103182286D01*
X202464682Y-103921413D01*
X201457031Y-104475373D01*
X200360975Y-104823063D01*
X199197582Y-104953559D01*
X199134392Y-104954000D01*
X194995048Y-104954000D01*
X195084083Y-104827785D01*
X195317077Y-104304472D01*
X195443989Y-103745870D01*
X195453125Y-103091581D01*
X195341860Y-102529653D01*
X195123569Y-102000039D01*
X194873401Y-101623506D01*
X197903382Y-101623506D01*
X197946962Y-101860951D01*
X198035831Y-102085410D01*
X198166606Y-102288332D01*
X198334304Y-102461989D01*
X198532539Y-102599766D01*
X198753760Y-102696415D01*
X198989540Y-102748255D01*
X199230898Y-102753310D01*
X199468642Y-102711390D01*
X199693716Y-102624089D01*
X199897546Y-102494735D01*
X200072370Y-102328253D01*
X200211527Y-102130984D01*
X200309718Y-101910444D01*
X200363202Y-101675032D01*
X200367053Y-101399294D01*
X200320162Y-101162480D01*
X200228167Y-100939284D01*
X200094572Y-100738208D01*
X199924465Y-100566909D01*
X199724326Y-100431913D01*
X199501778Y-100338363D01*
X199265297Y-100289820D01*
X199023891Y-100288135D01*
X198786756Y-100333371D01*
X198562923Y-100423805D01*
X198360919Y-100555993D01*
X198188437Y-100724900D01*
X198052047Y-100924092D01*
X197956945Y-101145982D01*
X197906753Y-101382118D01*
X197903382Y-101623506D01*
X194873401Y-101623506D01*
X194806565Y-101522910D01*
X194402924Y-101116441D01*
X193928020Y-100796114D01*
X193399942Y-100574131D01*
X192838805Y-100458946D01*
X192265981Y-100454947D01*
X191703290Y-100562286D01*
X191172165Y-100776875D01*
X190692834Y-101090539D01*
X190283558Y-101491333D01*
X189959923Y-101963989D01*
X189734259Y-102490504D01*
X189615159Y-103050824D01*
X189607161Y-103623606D01*
X189710569Y-104187032D01*
X189921445Y-104719643D01*
X190072477Y-104954000D01*
X181356000Y-104954000D01*
X181336176Y-104955944D01*
X181316257Y-104955735D01*
X181291996Y-104960275D01*
X181267429Y-104962684D01*
X181248357Y-104968442D01*
X181228780Y-104972106D01*
X181205862Y-104981273D01*
X181182232Y-104988407D01*
X181164645Y-104997758D01*
X181146149Y-105005156D01*
X181125446Y-105018600D01*
X181103653Y-105030188D01*
X181088219Y-105042776D01*
X181071511Y-105053626D01*
X181066563Y-105057634D01*
X180667730Y-105385239D01*
X180252263Y-105608011D01*
X179801443Y-105745840D01*
X179332429Y-105793480D01*
X178863101Y-105749116D01*
X178411329Y-105614437D01*
X177994317Y-105394571D01*
X177593205Y-105069758D01*
X177591428Y-105068586D01*
X177581275Y-105060306D01*
X177549625Y-105033748D01*
X177546824Y-105032208D01*
X177544347Y-105030188D01*
X177507861Y-105010788D01*
X177471638Y-104990874D01*
X177468591Y-104989907D01*
X177465769Y-104988407D01*
X177426183Y-104976455D01*
X177386808Y-104963965D01*
X177383635Y-104963609D01*
X177380571Y-104962684D01*
X177339427Y-104958650D01*
X177298367Y-104954044D01*
X177292001Y-104954000D01*
X172742305Y-104954000D01*
X171575607Y-104839604D01*
X170474802Y-104507251D01*
X169459521Y-103967417D01*
X168568428Y-103240659D01*
X167835464Y-102354658D01*
X167440133Y-101623506D01*
X171487382Y-101623506D01*
X171530962Y-101860951D01*
X171619831Y-102085410D01*
X171750606Y-102288332D01*
X171918304Y-102461989D01*
X172116539Y-102599766D01*
X172337760Y-102696415D01*
X172573540Y-102748255D01*
X172814898Y-102753310D01*
X173052642Y-102711390D01*
X173277716Y-102624089D01*
X173481546Y-102494735D01*
X173656370Y-102328253D01*
X173795527Y-102130984D01*
X173893718Y-101910444D01*
X173947202Y-101675032D01*
X173947921Y-101623506D01*
X184695382Y-101623506D01*
X184738962Y-101860951D01*
X184827831Y-102085410D01*
X184958606Y-102288332D01*
X185126304Y-102461989D01*
X185324539Y-102599766D01*
X185545760Y-102696415D01*
X185781540Y-102748255D01*
X186022898Y-102753310D01*
X186260642Y-102711390D01*
X186485716Y-102624089D01*
X186689546Y-102494735D01*
X186864370Y-102328253D01*
X187003527Y-102130984D01*
X187101718Y-101910444D01*
X187155202Y-101675032D01*
X187159053Y-101399294D01*
X187112162Y-101162480D01*
X187020167Y-100939284D01*
X186886572Y-100738208D01*
X186716465Y-100566909D01*
X186516326Y-100431913D01*
X186293778Y-100338363D01*
X186057297Y-100289820D01*
X185815891Y-100288135D01*
X185578756Y-100333371D01*
X185354923Y-100423805D01*
X185152919Y-100555993D01*
X184980437Y-100724900D01*
X184844047Y-100924092D01*
X184748945Y-101145982D01*
X184698753Y-101382118D01*
X184695382Y-101623506D01*
X173947921Y-101623506D01*
X173951053Y-101399294D01*
X173904162Y-101162480D01*
X173812167Y-100939284D01*
X173678572Y-100738208D01*
X173508465Y-100566909D01*
X173308326Y-100431913D01*
X173085778Y-100338363D01*
X172849297Y-100289820D01*
X172607891Y-100288135D01*
X172370756Y-100333371D01*
X172146923Y-100423805D01*
X171944919Y-100555993D01*
X171772437Y-100724900D01*
X171636047Y-100924092D01*
X171540945Y-101145982D01*
X171490753Y-101382118D01*
X171487382Y-101623506D01*
X167440133Y-101623506D01*
X167288554Y-101343168D01*
X166948525Y-100244713D01*
X166828330Y-99101131D01*
X166932547Y-97955985D01*
X167257206Y-96852889D01*
X167789943Y-95833858D01*
X168510460Y-94937714D01*
X169391318Y-94198587D01*
X170398966Y-93644627D01*
X171495025Y-93296937D01*
X172658417Y-93166441D01*
X172721607Y-93166000D01*
X177292000Y-93166000D01*
X177311824Y-93164056D01*
X177331743Y-93164265D01*
X177356004Y-93159725D01*
X177380571Y-93157316D01*
X177399643Y-93151558D01*
X177419220Y-93147894D01*
X177442138Y-93138727D01*
X177465768Y-93131593D01*
X177483355Y-93122242D01*
X177501851Y-93114844D01*
X177522554Y-93101400D01*
X177544347Y-93089812D01*
X177559781Y-93077224D01*
X177576489Y-93066374D01*
X177581437Y-93062366D01*
X177980271Y-92734761D01*
X178395737Y-92511989D01*
X178846557Y-92374160D01*
X179315571Y-92326520D01*
X179784898Y-92370884D01*
X179784898Y-92370884D01*
G37*
X179784898Y-92370884D02*
X180236672Y-92505564D01*
X180653687Y-92725431D01*
X181054795Y-93050243D01*
X181056577Y-93051418D01*
X181066741Y-93059708D01*
X181098375Y-93086252D01*
X181101173Y-93087790D01*
X181103652Y-93089812D01*
X181140129Y-93109207D01*
X181176362Y-93129126D01*
X181179414Y-93130094D01*
X181182231Y-93131592D01*
X181221751Y-93143524D01*
X181261192Y-93156035D01*
X181264370Y-93156392D01*
X181267429Y-93157315D01*
X181308502Y-93161342D01*
X181349633Y-93165956D01*
X181356000Y-93166000D01*
X190070839Y-93166000D01*
X189959923Y-93327989D01*
X189734259Y-93854504D01*
X189615159Y-94414824D01*
X189607161Y-94987606D01*
X189710569Y-95551032D01*
X189921445Y-96083643D01*
X190231755Y-96565151D01*
X190629682Y-96977216D01*
X191100067Y-97304142D01*
X191624994Y-97533477D01*
X192184469Y-97656486D01*
X192757181Y-97668482D01*
X193321315Y-97569010D01*
X193855386Y-97361858D01*
X194339048Y-97054916D01*
X194753881Y-96659876D01*
X195084083Y-96191785D01*
X195317077Y-95668472D01*
X195443989Y-95109870D01*
X195453125Y-94455581D01*
X195341860Y-93893653D01*
X195123569Y-93364039D01*
X194991992Y-93166000D01*
X199113695Y-93166000D01*
X200280392Y-93280396D01*
X201381198Y-93612749D01*
X202396479Y-94152583D01*
X203287572Y-94879341D01*
X204020533Y-95765337D01*
X204567446Y-96776832D01*
X204907475Y-97875287D01*
X205027670Y-99018869D01*
X204923453Y-100164016D01*
X204598794Y-101267111D01*
X204066059Y-102286138D01*
X203345540Y-103182286D01*
X202464682Y-103921413D01*
X201457031Y-104475373D01*
X200360975Y-104823063D01*
X199197582Y-104953559D01*
X199134392Y-104954000D01*
X194995048Y-104954000D01*
X195084083Y-104827785D01*
X195317077Y-104304472D01*
X195443989Y-103745870D01*
X195453125Y-103091581D01*
X195341860Y-102529653D01*
X195123569Y-102000039D01*
X194873401Y-101623506D01*
X197903382Y-101623506D01*
X197946962Y-101860951D01*
X198035831Y-102085410D01*
X198166606Y-102288332D01*
X198334304Y-102461989D01*
X198532539Y-102599766D01*
X198753760Y-102696415D01*
X198989540Y-102748255D01*
X199230898Y-102753310D01*
X199468642Y-102711390D01*
X199693716Y-102624089D01*
X199897546Y-102494735D01*
X200072370Y-102328253D01*
X200211527Y-102130984D01*
X200309718Y-101910444D01*
X200363202Y-101675032D01*
X200367053Y-101399294D01*
X200320162Y-101162480D01*
X200228167Y-100939284D01*
X200094572Y-100738208D01*
X199924465Y-100566909D01*
X199724326Y-100431913D01*
X199501778Y-100338363D01*
X199265297Y-100289820D01*
X199023891Y-100288135D01*
X198786756Y-100333371D01*
X198562923Y-100423805D01*
X198360919Y-100555993D01*
X198188437Y-100724900D01*
X198052047Y-100924092D01*
X197956945Y-101145982D01*
X197906753Y-101382118D01*
X197903382Y-101623506D01*
X194873401Y-101623506D01*
X194806565Y-101522910D01*
X194402924Y-101116441D01*
X193928020Y-100796114D01*
X193399942Y-100574131D01*
X192838805Y-100458946D01*
X192265981Y-100454947D01*
X191703290Y-100562286D01*
X191172165Y-100776875D01*
X190692834Y-101090539D01*
X190283558Y-101491333D01*
X189959923Y-101963989D01*
X189734259Y-102490504D01*
X189615159Y-103050824D01*
X189607161Y-103623606D01*
X189710569Y-104187032D01*
X189921445Y-104719643D01*
X190072477Y-104954000D01*
X181356000Y-104954000D01*
X181336176Y-104955944D01*
X181316257Y-104955735D01*
X181291996Y-104960275D01*
X181267429Y-104962684D01*
X181248357Y-104968442D01*
X181228780Y-104972106D01*
X181205862Y-104981273D01*
X181182232Y-104988407D01*
X181164645Y-104997758D01*
X181146149Y-105005156D01*
X181125446Y-105018600D01*
X181103653Y-105030188D01*
X181088219Y-105042776D01*
X181071511Y-105053626D01*
X181066563Y-105057634D01*
X180667730Y-105385239D01*
X180252263Y-105608011D01*
X179801443Y-105745840D01*
X179332429Y-105793480D01*
X178863101Y-105749116D01*
X178411329Y-105614437D01*
X177994317Y-105394571D01*
X177593205Y-105069758D01*
X177591428Y-105068586D01*
X177581275Y-105060306D01*
X177549625Y-105033748D01*
X177546824Y-105032208D01*
X177544347Y-105030188D01*
X177507861Y-105010788D01*
X177471638Y-104990874D01*
X177468591Y-104989907D01*
X177465769Y-104988407D01*
X177426183Y-104976455D01*
X177386808Y-104963965D01*
X177383635Y-104963609D01*
X177380571Y-104962684D01*
X177339427Y-104958650D01*
X177298367Y-104954044D01*
X177292001Y-104954000D01*
X172742305Y-104954000D01*
X171575607Y-104839604D01*
X170474802Y-104507251D01*
X169459521Y-103967417D01*
X168568428Y-103240659D01*
X167835464Y-102354658D01*
X167440133Y-101623506D01*
X171487382Y-101623506D01*
X171530962Y-101860951D01*
X171619831Y-102085410D01*
X171750606Y-102288332D01*
X171918304Y-102461989D01*
X172116539Y-102599766D01*
X172337760Y-102696415D01*
X172573540Y-102748255D01*
X172814898Y-102753310D01*
X173052642Y-102711390D01*
X173277716Y-102624089D01*
X173481546Y-102494735D01*
X173656370Y-102328253D01*
X173795527Y-102130984D01*
X173893718Y-101910444D01*
X173947202Y-101675032D01*
X173947921Y-101623506D01*
X184695382Y-101623506D01*
X184738962Y-101860951D01*
X184827831Y-102085410D01*
X184958606Y-102288332D01*
X185126304Y-102461989D01*
X185324539Y-102599766D01*
X185545760Y-102696415D01*
X185781540Y-102748255D01*
X186022898Y-102753310D01*
X186260642Y-102711390D01*
X186485716Y-102624089D01*
X186689546Y-102494735D01*
X186864370Y-102328253D01*
X187003527Y-102130984D01*
X187101718Y-101910444D01*
X187155202Y-101675032D01*
X187159053Y-101399294D01*
X187112162Y-101162480D01*
X187020167Y-100939284D01*
X186886572Y-100738208D01*
X186716465Y-100566909D01*
X186516326Y-100431913D01*
X186293778Y-100338363D01*
X186057297Y-100289820D01*
X185815891Y-100288135D01*
X185578756Y-100333371D01*
X185354923Y-100423805D01*
X185152919Y-100555993D01*
X184980437Y-100724900D01*
X184844047Y-100924092D01*
X184748945Y-101145982D01*
X184698753Y-101382118D01*
X184695382Y-101623506D01*
X173947921Y-101623506D01*
X173951053Y-101399294D01*
X173904162Y-101162480D01*
X173812167Y-100939284D01*
X173678572Y-100738208D01*
X173508465Y-100566909D01*
X173308326Y-100431913D01*
X173085778Y-100338363D01*
X172849297Y-100289820D01*
X172607891Y-100288135D01*
X172370756Y-100333371D01*
X172146923Y-100423805D01*
X171944919Y-100555993D01*
X171772437Y-100724900D01*
X171636047Y-100924092D01*
X171540945Y-101145982D01*
X171490753Y-101382118D01*
X171487382Y-101623506D01*
X167440133Y-101623506D01*
X167288554Y-101343168D01*
X166948525Y-100244713D01*
X166828330Y-99101131D01*
X166932547Y-97955985D01*
X167257206Y-96852889D01*
X167789943Y-95833858D01*
X168510460Y-94937714D01*
X169391318Y-94198587D01*
X170398966Y-93644627D01*
X171495025Y-93296937D01*
X172658417Y-93166441D01*
X172721607Y-93166000D01*
X177292000Y-93166000D01*
X177311824Y-93164056D01*
X177331743Y-93164265D01*
X177356004Y-93159725D01*
X177380571Y-93157316D01*
X177399643Y-93151558D01*
X177419220Y-93147894D01*
X177442138Y-93138727D01*
X177465768Y-93131593D01*
X177483355Y-93122242D01*
X177501851Y-93114844D01*
X177522554Y-93101400D01*
X177544347Y-93089812D01*
X177559781Y-93077224D01*
X177576489Y-93066374D01*
X177581437Y-93062366D01*
X177980271Y-92734761D01*
X178395737Y-92511989D01*
X178846557Y-92374160D01*
X179315571Y-92326520D01*
X179784898Y-92370884D01*
M02*
